<?xml version="1.0" encoding="utf-8"?>
<!-- Generator: Adobe Illustrator 19.2.0, SVG Export Plug-In . SVG Version: 6.00 Build 0)  -->
<svg version="1.0" id="Calque_1" xmlns="http://www.w3.org/2000/svg" xmlns:xlink="http://www.w3.org/1999/xlink" x="0px" y="0px" width="18px" height="18px"
	 viewBox="0 0 320 320" enable-background="new 0 0 320 320" xml:space="preserve">
<path fill="#66CCFF" d="M159.634,308.653c-82.164,0-149-66.836-149-149s66.836-149,149-149s149,66.836,149,149
	S241.798,308.653,159.634,308.653z M159.634,27.209c-73.03,0-132.444,59.4-132.444,132.444c0,73.012,59.415,132.444,132.444,132.444
	c73.028,0,132.444-59.433,132.444-132.444C292.079,86.608,232.663,27.209,159.634,27.209z"/>
<circle fill="#66CCFF" cx="159.634" cy="159.733" r="28"/>
<polygon fill="#66CCFF" points="274.313,159.396 247,132.083 247,152 186,152 186,169 247,169 247,186.708 "/>
<polygon fill="#66CCFF" points="242,79 202.976,79 216.361,92.502 173.228,135.693 185.249,147.743 228.581,104.624 242,117.858 "/>
</svg>
