<?xml version="1.0" encoding="utf-8"?>
<!-- Generator: Adobe Illustrator 19.2.0, SVG Export Plug-In . SVG Version: 6.00 Build 0)  -->
<svg version="1.0" id="Calque_1" xmlns="http://www.w3.org/2000/svg" xmlns:xlink="http://www.w3.org/1999/xlink" x="0px" y="0px" width="18px" height="18px"
	 viewBox="0 0 320 320" enable-background="new 0 0 320 320" xml:space="preserve">
<path fill="#66CCFF" d="M159.634,308.653c-82.164,0-149-66.836-149-149s66.836-149,149-149s149,66.836,149,149
	S241.798,308.653,159.634,308.653z M159.634,27.209c-73.03,0-132.444,59.4-132.444,132.444c0,73.012,59.415,132.444,132.444,132.444
	c73.028,0,132.444-59.433,132.444-132.444C292.079,86.608,232.663,27.209,159.634,27.209z"/>
<g>
	<circle fill="#66CCFF" cx="159.634" cy="159.733" r="28"/>
	<polygon fill="#66CCFF" points="159.383,44.687 132.07,72 151,72 151,133 168,133 168,72 186.695,72 	"/>
	<polygon fill="#66CCFF" points="159.383,274.313 186.695,247 168,247 168,186 151,186 151,247 132.07,247 	"/>
	<polygon fill="#66CCFF" points="274.313,159.396 247,132.083 247,152 186,152 186,169 247,169 247,186.708 	"/>
	<polygon fill="#66CCFF" points="44.687,159.844 72,187.156 72,168 133,168 133,151 72,151 72,132.531 	"/>
	<polygon fill="#66CCFF" points="242,79 202.976,79 216.361,92.502 173.228,135.693 185.249,147.743 228.581,104.624 242,117.858 	
		"/>
	<polygon fill="#66CCFF" points="79,242 117.858,242 104.639,228.581 147.772,185.348 135.751,173.278 92.502,216.386 79,202.976 	
		"/>
	<polygon fill="#66CCFF" points="242,240 242,200.985 227.796,215.069 184.602,171.935 172.551,183.956 215.669,227.284 
		203.133,240 	"/>
	<polygon fill="#66CCFF" points="79,79 79,117.184 92.582,103.639 135.733,146.772 147.763,134.751 104.634,91.839 117.698,79 	"/>
</g>
</svg>
